# xmcd
#
# Track frame offsets:
#	150
#	12349
#	24364
#	37543
#	52339
#	64202
#	78796
#	91868
#	104119
#	120042
#	137255
#	153524
#	167406
#	185616
#	202804
#	213322
#	224762
#	236778
#	247296
#	260929
#
# Disc length: 3653 seconds
#
# Revision: 1
# Processed by: cddbd v1.5.2PL0 Copyright (c) Steve Scherf et al.
# Submitted via: EZCDAudioConverter 5.0.5.1
#
DISCID=160e4314
DTITLE=Compilation - Top 40 Country [Disc 1]
DYEAR=2014
DGENRE=Country
TTITLE0=Dolly Parton - Jolene
TTITLE1=Tammy Wynette - Stand By Your Man
TTITLE2=Lynn Anderson - Rose Garden
TTITLE3=Roseanne Cash - Seven Year Ache
TTITLE4=Skeeter Davis - The End Of The World
TTITLE5=Lorne Green - Ringo
TTITLE6=Martina McBride - I Love You
TTITLE7=Charlie Rich - The Most Beautiful Girl
TTITLE8=Willie Nelson - Always On My Mind
TTITLE9=Ray Price - For The Good Times
TTITLE10=The Charlie Daniels Band - The Devil Went Down To Georgie
TTITLE11=Mac Davies - Baby Don't Get Hooked On Me
TTITLE12=Billy Swan - I Can Help
TTITLE13=J.D. Souther - You're Only Lonely
TTITLE14=Jerry Reed - When You're Hot
TTITLE15=Don Gibson - Sea Of Heartbreak
TTITLE16=Eddy Arnold - Make The Word Go Away
TTITLE17=Jim Reeves - He'll Have To Go
TTITLE18=Jimmy Dean - Big Bad John
TTITLE19=Marty Robbins - Devil Woman
EXTD=
EXTT0=
EXTT1=
EXTT2=
EXTT3=
EXTT4=
EXTT5=
EXTT6=
EXTT7=
EXTT8=
EXTT9=
EXTT10=
EXTT11=
EXTT12=
EXTT13=
EXTT14=
EXTT15=
EXTT16=
EXTT17=
EXTT18=
EXTT19=
PLAYORDER=
